<svg xmlns="http://www.w3.org/2000/svg" width="90" height="10"><path d="M50.009 3.023c2.426.747 5.013.712 7.551.685 7.475-.08 14.951-.039 22.427-.021 2.066.005 4.21.026 6.076.913 2.097.997 3.63 3.099 3.938 5.4-.693-.738-1.518-1.351-2.423-1.803-2.279-1.135-4.923-1.199-7.469-1.224-6.763-.068-13.527-.028-20.291-.021-3.287.004-6.69-.024-9.682-1.383-2.118-.962-3.933-2.578-5.134-4.57-1.185 1.921-2.931 3.492-4.968 4.466-3.091 1.479-6.644 1.55-10.07 1.56-6.635.019-13.271-.084-19.906-.049-2.586.014-5.271.072-7.592 1.214-.919.452-1.758 1.068-2.465 1.809.342-2.309 1.879-4.408 3.978-5.429 1.834-.893 3.945-.968 5.984-1.016 7.532-.177 15.068-.207 22.601-.06 2.485.048 5.015.11 7.402-.58 1.882-.544 3.627-1.555 5.035-2.916 1.39 1.395 3.126 2.443 5.009 3.023" transform="rotate(90)" fill="#d22856" /></svg>