<svg xmlns="http://www.w3.org/2000/svg" xmlns:xlink="http://www.w3.org/1999/xlink"><defs><path id="a" d="M98.1 244.8c1.6 7.5 5.5 11.9 9.4 14.5h41.1c5-3.4 10.1-9.8 10.1-21.8v-31s.6-7.7 7.7-10.2c0 0 4.1-2.9-.3-4.5 0 0-19.5-1.6-19.5 14.4v23.6s.8 8.7-3.8 12.3v-29.2s.3-9.3 5.1-12.8c0 0 3.2-5.7-3.8-4.2 0 0-13.4 1.9-14 17.6l-.3 30h-3.2l-.3-30c-.6-15.6-14-17.6-14-17.6-7-1.6-3.8 4.2-3.8 4.2 4.8 3.5 5.1 12.8 5.1 12.8v29.5c-4.6-3.3-3.8-12.6-3.8-12.6v-23.6c0-16-19.5-14.4-19.5-14.4-4.5 1.6-.3 4.5-.3 4.5 7 2.6 7.7 10.2 7.7 10.2v21.7l.4 16.6z"/></defs><symbol id="codepen-icon" viewBox="0 0 256 256" preserveAspectRatio="xMidYMid"><path d="M255.807 87.087c-.059-.31-.11-.621-.193-.924l-.172-.534a10.85 10.85 0 0 0-.283-.8l-.245-.534a9.693 9.693 0 0 0-.376-.731l-.314-.51c-.148-.228-.3-.452-.465-.669l-.376-.472a10.996 10.996 0 0 0-.545-.596l-.441-.431a9.204 9.204 0 0 0-.624-.521c-.165-.128-.328-.259-.5-.376l-.183-.138L134.098 1.849a10.988 10.988 0 0 0-12.2 0L4.899 79.847l-.183.138-.5.376c-.214.169-.424.341-.624.517a8.903 8.903 0 0 0-.438.431c-.193.193-.372.39-.548.596-.131.155-.255.31-.376.483-.165.217-.317.438-.465.669l-.314.51a9.359 9.359 0 0 0-.372.724l-.245.534c-.107.262-.2.531-.286.8l-.169.517c-.079.303-.138.61-.193.924l-.09.476c-.062.476-.097.951-.097 1.438v78.016c0 .483.034.965.103 1.438l.103.476c.055.31.103.621.207.931.048.172.103.345.172.534.086.276.172.552.276.803l.241.517c.114.241.241.483.379.734l.31.503c.148.241.31.448.483.655.121.172.241.31.379.476.176.207.345.414.552.596.141.138.276.31.448.414l.621.524c.165.138.345.241.483.376l.172.134 116.968 78.04a10.812 10.812 0 0 0 6.102 1.851 11.065 11.065 0 0 0 6.102-1.851l116.999-77.998.183-.134.5-.376c.214-.169.424-.345.624-.524l.441-.427a10.202 10.202 0 0 0 .921-1.072c.165-.217.317-.441.465-.669l.314-.503c.138-.241.259-.486.376-.734l.245-.531c.107-.265.197-.534.283-.803l.172-.534c.079-.303.134-.614.193-.924l.086-.476c.062-.476.097-.951.097-1.438V89.002c0-.486-.038-.962-.097-1.438l-.114-.476h.017zm-127.81 66.935l-38.904-26.021 38.904-26.025 38.908 26.025-38.908 26.021zM117 82.867l-47.692 31.899L30.81 89.014l86.189-57.458v51.312zm-67.477 45.13l-27.517 18.406v-36.812l27.517 18.406zm19.785 13.245L117 173.138v51.312l-86.189-57.465 38.498-25.749v.007zm69.69 31.889l47.692-31.896 38.501 25.749-86.193 57.458V173.13zm67.477-45.127l27.521-18.409v36.815l-27.521-18.413v.007zm-19.785-13.238L138.998 82.87V31.555l86.193 57.458-38.501 25.752z" fill="#ccc"/></symbol><symbol id="facebook" viewBox="0 0 112.196 112.196"><circle cx="56.098" cy="56.098" r="56.098" fill="#3B5998"/><path d="M70.201 58.294h-10.01v36.672H45.025V58.294h-7.213V45.406h7.213v-8.34c0-5.964 2.833-15.303 15.301-15.303l11.234.047v12.51h-8.151c-1.337 0-3.217.668-3.217 3.513v7.585h11.334l-1.325 12.876z" fill="#fff"/></symbol><symbol id="github-octocat" viewBox="0 0 256 259.3" preserveAspectRatio="xMidYMid"><path fill="#9EDCF2" d="M200.9 199.8c0 13.9-32.2 25.1-71.9 25.1s-71.9-11.3-71.9-25.1c0-13.9 32.2-25.1 71.9-25.1s71.9 11.2 71.9 25.1zm0 0"/><clipPath id="b"><use xlink:href="#a" overflow="visible"/></clipPath><path clip-path="url(#b)" fill="#7DBCE7" d="M200.9 199.8c0 13.9-32.2 25.1-71.9 25.1s-71.9-11.3-71.9-25.1c0-13.9 32.2-25.1 71.9-25.1s71.9 11.2 71.9 25.1zm0 0"/><path fill="#9EDCF2" d="M46.9 125.9l-2.1 7.2s-.5 2.6 1.9 3.1c2.6-.1 2.4-2.5 2.2-3.2l-2-7.1zm0 0"/><path fill="#010101" d="M255.8 95.6l.2-.9c-21.1-4.2-42.7-4.3-55.8-3.7 2.1-7.7 2.8-16.7 2.8-26.6 0-14.3-5.4-25.7-14-34.3 1.5-4.9 3.5-15.8-2-29.7 0 0-9.8-3.1-32.1 11.8-8.7-2.2-18-3.3-27.3-3.3-10.2 0-20.5 1.3-30.2 3.9C74.4-2.9 64.3.3 64.3.3c-6.6 16.5-2.5 28.8-1.3 31.8-7.8 8.4-12.5 19.1-12.5 32.2 0 9.9 1.1 18.8 3.9 26.5-13.2-.5-34-.3-54.4 3.8l.2.9c20.4-4.1 41.4-4.2 54.5-3.7.6 1.6 1.3 3.2 2 4.7-13 .4-35.1 2.1-56.3 8.1l.3.9c21.4-6 43.7-7.6 56.6-8 7.8 14.4 23 23.8 50.2 26.7-3.9 2.6-7.8 7-9.4 14.5-5.3 2.5-21.9 8.7-31.9-8.5 0 0-5.6-10.2-16.3-11 0 0-10.4-.2-.7 6.5 0 0 6.9 3.3 11.7 15.6 0 0 6.3 21 36.4 14.2V177s-.6 7.7-7.7 10.2c0 0-4.2 2.9.3 4.5 0 0 19.5 1.6 19.5-14.4v-23.6s-.8-9.4 3.8-12.6v38.8s-.3 9.3-5.1 12.8c0 0-3.2 5.7 3.8 4.2 0 0 13.4-1.9 14-17.6l.3-39.3h3.2l.3 39.3c.6 15.6 14 17.6 14 17.6 7 1.6 3.8-4.2 3.8-4.2-4.8-3.5-5.1-12.8-5.1-12.8v-38.5c4.6 3.6 3.8 12.3 3.8 12.3v23.6c0 16 19.5 14.4 19.5 14.4 4.5-1.6.3-4.5.3-4.5-7-2.6-7.7-10.2-7.7-10.2v-31c0-12.1-5.1-18.5-10.1-21.8 29-2.9 42.9-12.2 49.3-26.8 12.7.3 35.6 1.9 57.4 8.1l.3-.9c-21.7-6.1-44.4-7.7-57.3-8.1.6-1.5 1.1-3 1.6-4.6 13.4-.5 35.1-.5 56.3 3.7zm0 0"/><path fill="#F5CCB3" d="M174.6 63.7c6.2 5.7 9.9 12.5 9.9 19.8 0 34.4-25.6 35.3-57.2 35.3S70.1 114 70.1 83.5c0-7.3 3.6-14.1 9.8-19.7 10.3-9.4 27.7-4.4 47.4-4.4s37-5.1 47.3 4.3zm0 0"/><path fill="#fff" d="M108.3 85.3c0 9.5-5.3 17.1-11.9 17.1-6.6 0-11.9-7.7-11.9-17.1 0-9.5 5.3-17.1 11.9-17.1 6.6-.1 11.9 7.6 11.9 17.1zm0 0"/><path fill="#AF5C51" d="M104.5 85.5c0 6.3-3.6 11.4-7.9 11.4-4.4 0-7.9-5.1-7.9-11.4 0-6.3 3.6-11.4 7.9-11.4 4.3 0 7.9 5.1 7.9 11.4zm0 0"/><path fill="#fff" d="M172.2 85.3c0 9.5-5.3 17.1-11.9 17.1-6.6 0-11.9-7.7-11.9-17.1 0-9.5 5.3-17.1 11.9-17.1 6.5-.1 11.9 7.6 11.9 17.1zm0 0"/><path fill="#AF5C51" d="M168.3 85.5c0 6.3-3.6 11.4-7.9 11.4-4.4 0-7.9-5.1-7.9-11.4 0-6.3 3.6-11.4 7.9-11.4 4.4 0 7.9 5.1 7.9 11.4zm-37.8 15c0 1.6-1.3 3-3 3-1.6 0-3-1.3-3-3s1.3-3 3-3c1.6 0 3 1.3 3 3zm-9.9 7.5c-.2-.5.1-1 .6-1.2.5-.2 1 .1 1.2.6.8 2.2 2.8 3.6 5.1 3.6s4.3-1.5 5.1-3.6c.2-.5.7-.8 1.2-.6.5.2.8.7.6 1.2-1 2.9-3.8 4.9-6.9 4.9-3.1 0-5.9-2-6.9-4.9zm0 0"/><path fill="#C4E5D9" d="M54.5 121.6c0 .8-.9 1.4-2.1 1.4-1.1 0-2.1-.6-2.1-1.4 0-.8.9-1.4 2.1-1.4 1.2 0 2.1.6 2.1 1.4zm5.8 3.2c0 .8-.9 1.4-2.1 1.4-1.1 0-2.1-.6-2.1-1.4 0-.8.9-1.4 2.1-1.4 1.2 0 2.1.6 2.1 1.4zm3.5 4.2c0 .8-.9 1.4-2.1 1.4-1.1 0-2.1-.6-2.1-1.4 0-.8.9-1.4 2.1-1.4 1.2-.1 2.1.6 2.1 1.4zm3.2 4.8c0 .8-.9 1.4-2.1 1.4-1.1 0-2.1-.6-2.1-1.4 0-.8.9-1.4 2.1-1.4 1.2-.1 2.1.6 2.1 1.4zm3.5 4.4c0 .8-.9 1.4-2.1 1.4-1.1 0-2.1-.6-2.1-1.4 0-.8.9-1.4 2.1-1.4 1.2 0 2.1.6 2.1 1.4zm4.8 3.9c0 .8-.9 1.4-2.1 1.4-1.1 0-2.1-.6-2.1-1.4 0-.8.9-1.4 2.1-1.4 1.2-.1 2.1.6 2.1 1.4zm6.7 2.5c0 .8-.9 1.4-2.1 1.4-1.1 0-2.1-.6-2.1-1.4 0-.8.9-1.4 2.1-1.4 1.2 0 2.1.6 2.1 1.4zm6.7 0c0 .8-.9 1.4-2.1 1.4-1.1 0-2.1-.6-2.1-1.4 0-.8.9-1.4 2.1-1.4 1.2 0 2.1.6 2.1 1.4zm6.8-1.1c0 .8-.9 1.4-2.1 1.4-1.1 0-2.1-.6-2.1-1.4 0-.8.9-1.4 2.1-1.4 1.1 0 2.1.6 2.1 1.4zm0 0"/></symbol><symbol id="gmail" viewBox="0 0 512 512"><path d="M484.973 122.808l-32.685 328.209H59.712L33.379 129.16 256 253.802zm-11.087-61.825L256 265.659 38.114 60.983H256z" fill="#F2F2F2"/><path d="M59.712 155.493v295.524H24.139C10.812 451.017 0 440.206 0 426.878V111.967l39 1.063 20.712 42.463z" fill="#F14336"/><path d="M512 111.967v314.912c0 13.327-10.812 24.139-24.152 24.139h-35.56V155.493l19.692-46.525 40.02 2.999z" fill="#D32E2A"/><path d="M512 85.122v26.845l-59.712 43.526L256 298.561 59.712 155.493 0 111.967V85.122c0-13.327 10.812-24.139 24.139-24.139h13.975L256 219.792 473.886 60.983h13.962c13.34 0 24.152 10.811 24.152 24.139z" fill="#F14336"/><path fill="#D32E2A" d="M59.712 155.493L0 146.235v-34.268z"/></symbol><symbol id="linkedin" viewBox="0 0 112.196 112.196"><circle cx="56.098" cy="56.097" r="56.098" fill="#007AB9"/><path d="M89.616 60.611v23.128H76.207V62.161c0-5.418-1.936-9.118-6.791-9.118-3.705 0-5.906 2.491-6.878 4.903-.353.862-.444 2.059-.444 3.268v22.524h-13.41s.18-36.546 0-40.329h13.411v5.715l-.089.132h.089v-.132c1.782-2.742 4.96-6.662 12.085-6.662 8.822 0 15.436 5.764 15.436 18.149zm-54.96-36.642c-4.587 0-7.588 3.011-7.588 6.967 0 3.872 2.914 6.97 7.412 6.97h.087c4.677 0 7.585-3.098 7.585-6.97-.089-3.956-2.908-6.967-7.496-6.967zm-6.791 59.77H41.27v-40.33H27.865v40.33z" fill="#F1F2F2"/></symbol><symbol id="skype" viewBox="0 0 455.731 455.731"><path fill="#15ACE5" d="M0 0h455.731v455.731H0z"/><path d="M379.742 257.242a147.043 147.043 0 0 0 2.708-28.107c0-80.82-65.518-146.338-146.338-146.338-9.615 0-19.01.938-28.107 2.708a84.048 84.048 0 0 0-42.589-11.532c-46.65 0-84.467 37.817-84.467 84.467a84.051 84.051 0 0 0 11.532 42.588 147.043 147.043 0 0 0-2.708 28.107c0 80.82 65.518 146.338 146.338 146.338 9.615 0 19.01-.938 28.107-2.708a84.047 84.047 0 0 0 42.588 11.532c46.65 0 84.467-37.817 84.467-84.467a84.024 84.024 0 0 0-11.531-42.588zm-140.85 72.392c-52 0-78-19.5-86-44s9.5-31.5 15-32 17.167.833 20.5 11c3.465 10.567 15 31.5 40 34s41.5-9 46.5-21-4-28.5-42.5-34-78.5-22.5-78.5-61 44-54 86-54 63.293 23.721 68 33c5.833 11.5 3.833 30.661-10 34-14.5 3.5-22-4.5-32.5-24-10.858-20.165-49.5-15-62.5-3.5s-9.5 28 44.5 38.5 74 30 74 60.5-30.5 62.5-82.5 62.5z" fill="#fff"/></symbol><symbol id="slack" viewBox="0 0 256 256" preserveAspectRatio="xMidYMid"><path d="M165.964 15.838c-3.89-11.975-16.751-18.529-28.724-14.636-11.975 3.89-18.529 16.751-14.636 28.724l58.947 181.366c4.048 11.186 16.132 17.473 27.732 14.135 12.099-3.483 19.475-16.334 15.614-28.217L165.965 15.838" fill="#DFA22F"/><path d="M74.626 45.516C70.734 33.543 57.873 26.99 45.899 30.88 33.924 34.77 27.37 47.631 31.263 59.607L90.21 240.973c4.048 11.186 16.132 17.473 27.732 14.132 12.099-3.481 19.475-16.332 15.614-28.217L74.626 45.516" fill="#3CB187"/><path d="M240.162 166.045c11.975-3.89 18.526-16.751 14.636-28.727-3.89-11.973-16.751-18.526-28.724-14.636L44.708 181.631c-11.186 4.046-17.473 16.13-14.135 27.73 3.483 12.099 16.334 19.475 28.217 15.614l181.372-58.93" fill="#CE1E5B"/><path d="M82.508 217.271l43.348-14.084-14.086-43.352-43.35 14.09 14.088 43.346" fill="#392538"/><path d="M173.847 187.591l43.348-14.084a491472.13 491472.13 0 0 1-14.088-43.361l-43.35 14.09 14.09 43.354" fill="#BB242A"/><path d="M210.484 74.706c11.973-3.89 18.526-16.751 14.636-28.727-3.89-11.973-16.751-18.526-28.727-14.636L15.027 90.292C3.841 94.338-2.446 106.422.895 118.022c3.481 12.099 16.332 19.475 28.217 15.614l181.372-58.93" fill="#72C5CD"/><path d="M52.822 125.933c11.805-3.836 27.025-8.782 43.354-14.086L82.092 68.495 38.731 82.588l14.09 43.346" fill="#248C73"/><path d="M144.159 96.256l43.356-14.088-14.088-43.361L130.069 52.9l14.09 43.356" fill="#62803A"/></symbol><symbol id="telegram" viewBox="0 0 455.731 455.731"><path fill="#61A8DE" d="M0 0h455.731v455.731H0z"/><path d="M358.844 100.6L54.091 219.359c-9.871 3.847-9.273 18.012.888 21.012l77.441 22.868 28.901 91.706c3.019 9.579 15.158 12.483 22.185 5.308l40.039-40.882 78.56 57.665c9.614 7.057 23.306 1.814 25.747-9.859l52.031-248.76c2.548-12.185-9.44-22.337-21.039-17.817zm-38.208 55.206L179.08 280.984a7.603 7.603 0 0 0-2.519 4.847l-5.45 48.448c-.178 1.58-2.389 1.789-2.861.271l-22.423-72.253a7.605 7.605 0 0 1 3.255-8.717l167.163-103.676c3.844-2.386 7.78 2.906 4.391 5.902z" fill="#fff"/></symbol><symbol id="twitter" viewBox="0 0 112.197 112.197"><circle cx="56.099" cy="56.098" r="56.098" fill="#55ACEE"/><path d="M90.461 40.316a26.753 26.753 0 0 1-7.702 2.109 13.445 13.445 0 0 0 5.897-7.417 26.843 26.843 0 0 1-8.515 3.253 13.396 13.396 0 0 0-9.79-4.233c-7.404 0-13.409 6.005-13.409 13.409 0 1.051.119 2.074.349 3.056-11.144-.559-21.025-5.897-27.639-14.012a13.351 13.351 0 0 0-1.816 6.742c0 4.651 2.369 8.757 5.965 11.161a13.314 13.314 0 0 1-6.073-1.679l-.001.17c0 6.497 4.624 11.916 10.757 13.147a13.362 13.362 0 0 1-3.532.471c-.866 0-1.705-.083-2.523-.239 1.706 5.326 6.657 9.203 12.526 9.312a26.904 26.904 0 0 1-16.655 5.74c-1.08 0-2.15-.063-3.197-.188a37.929 37.929 0 0 0 20.553 6.025c24.664 0 38.152-20.432 38.152-38.153 0-.581-.013-1.16-.039-1.734a27.192 27.192 0 0 0 6.692-6.94z" fill="#F1F2F2"/></symbol><symbol id="youtube" viewBox="0 0 291.319 291.319"><path d="M145.659 0c80.45 0 145.66 65.219 145.66 145.66s-65.21 145.659-145.66 145.659S0 226.1 0 145.66 65.21 0 145.659 0z" fill="#C4302B"/><path d="M142.145 118.357c4.606 0 8.212-1.466 10.852-3.55 2.622-2.094 3.933-4.943 3.933-8.603V84.118c0-3.25-1.338-5.936-4.006-8.002-2.686-2.067-6.118-3.095-10.324-3.095-4.597 0-8.275.974-10.997 2.931-2.731 1.966-4.097 4.588-4.097 7.911v22.158c0 3.641 1.329 6.518 3.987 8.676s6.219 3.66 10.652 3.66zm-4.815-33.419c0-.838.437-1.511 1.302-2.048.874-.519 2.003-.774 3.387-.774 1.511 0 2.731.255 3.651.774.929.537 1.384 1.211 1.384 2.048v20.993c0 1.038-.455 1.857-1.366 2.449-.91.583-2.13.883-3.669.883-1.502 0-2.667-.282-3.478-.874-.801-.574-1.211-1.393-1.211-2.458V84.938zm35.295 33.392c1.62 0 3.268-.929 4.98-1.857 1.73-.947 3.377-2.331 4.962-4.133v4.907h8.603v-44.29h-8.603v33.62a12.2 12.2 0 0 1-2.649 2.376c-.974.619-1.775.938-2.403.938-.81 0-1.402-.228-1.748-.71-.364-.464-.564-1.22-.564-2.258V72.966h-8.585v37.007c0 2.64.519 4.616 1.511 5.927 1.009 1.319 2.502 2.43 4.496 2.43zm25.017 18.308H93.677c-16.532 0-29.924 12.882-29.924 28.75v24.307c0 15.877 13.392 28.759 29.924 28.759h103.964c16.523 0 29.924-12.882 29.924-28.759v-24.307c.001-15.869-13.4-28.75-29.923-28.75zm-88.498 24.671H99.95v38.072h-8.894v-38.072h-9.195v-6.491h27.284l-.001 6.491zm27.439 38.6h-9.586v-3.951c-1.784 1.457-3.614 2.576-5.544 3.323-1.903.783-3.76 1.156-5.562 1.156-2.221 0-3.878-.537-5.007-1.62-1.111-1.065-1.684-2.667-1.684-4.807v-30.06h9.586v27.575c0 .856.2 1.457.583 1.839.419.391 1.083.564 1.976.564.692 0 1.602-.246 2.676-.756a12.29 12.29 0 0 0 2.977-1.93V163.94h9.586l-.001 35.969zm36.287-6.846c0 2.358-.747 4.151-2.23 5.417-1.466 1.265-3.632 1.884-6.427 1.884-1.866 0-3.523-.237-4.962-.719a12.478 12.478 0 0 1-4.051-2.258v2.549h-9.568v-45.118h9.568v14.539c1.293-1.001 2.649-1.784 4.06-2.312a12.461 12.461 0 0 1 4.37-.792c2.995 0 5.28.701 6.855 2.112 1.593 1.42 2.385 3.505 2.385 6.227v18.471zm36.47-10.151h-17.661v6.5c0 1.812.291 3.068.901 3.778.619.701 1.666 1.047 3.132 1.047 1.548 0 2.604-.3 3.223-.892.601-.601.929-1.903.929-3.942v-1.566h9.495v1.766c0 3.532-1.138 6.191-3.487 7.984-2.312 1.784-5.772 2.676-10.369 2.676-4.142 0-7.401-.947-9.777-2.84-2.367-1.875-3.569-4.497-3.569-7.811v-15.495c0-2.977 1.311-5.435 3.933-7.319 2.613-1.875 5.963-2.813 10.105-2.813 4.224 0 7.474.874 9.75 2.613 2.267 1.739 3.396 4.251 3.396 7.511l-.001 8.803zm-105.348-64.454h10.861V91.993l12.645-37.325h-11.043l-6.719 25.509h-.692l-7.046-25.509H91.046l12.945 38.518.001 25.272zm55.168 53.074l-2.012.328-1.957 1.011v20.738c.765.537 1.52.947 2.249 1.174l2.285.355c1.165 0 2.012-.228 2.558-.71.537-.464.819-1.229.819-2.276v-17.197c0-1.138-.319-1.985-.992-2.558-.692-.573-1.666-.865-2.95-.865zm37.062-1.511c-1.475 0-2.522.31-3.168.947-.637.61-.947 1.648-.947 3.095v3.478h8.166v-3.478c0-1.447-.337-2.476-.974-3.095-.629-.637-1.675-.947-3.077-.947z" fill="#fff"/></symbol></svg>