<svg width="256" height="256" viewBox="0 0 256 256" xmlns="http://www.w3.org/2000/svg" preserveAspectRatio="xMidYMid"><path d="M255.807 87.087c-.059-.31-.11-.621-.193-.924l-.172-.534c-.086-.269-.176-.538-.283-.8l-.245-.534c-.117-.248-.238-.493-.376-.731l-.314-.51c-.148-.228-.3-.452-.465-.669l-.376-.472c-.172-.207-.359-.403-.545-.596l-.441-.431c-.2-.183-.407-.355-.624-.521-.165-.128-.328-.259-.5-.376l-.183-.138-116.992-78.002c-3.692-2.465-8.508-2.465-12.2 0l-116.999 77.998-.183.138-.5.376c-.214.169-.424.341-.624.517-.152.138-.296.283-.438.431-.193.193-.372.39-.548.596-.131.155-.255.31-.376.483-.165.217-.317.438-.465.669l-.314.51c-.138.238-.259.483-.372.724l-.245.534c-.107.262-.2.531-.286.8l-.169.517c-.079.303-.138.61-.193.924l-.09.476c-.062.476-.097.951-.097 1.438v78.016c0 .483.034.965.103 1.438l.103.476c.055.31.103.621.207.931.048.172.103.345.172.534.086.276.172.552.276.803l.241.517c.114.241.241.483.379.734l.31.503c.148.241.31.448.483.655.121.172.241.31.379.476.176.207.345.414.552.596.141.138.276.31.448.414l.621.524c.165.138.345.241.483.376l.172.134 116.968 78.04c1.848 1.241 3.965 1.862 6.102 1.851 2.137-.01 4.254-.621 6.102-1.851l116.999-77.998.183-.134.5-.376c.214-.169.424-.345.624-.524l.441-.427c.19-.193.372-.39.545-.596.131-.155.255-.31.376-.476.165-.217.317-.441.465-.669l.314-.503c.138-.241.259-.486.376-.734l.245-.531c.107-.265.197-.534.283-.803l.172-.534c.079-.303.134-.614.193-.924l.086-.476c.062-.476.097-.951.097-1.438v-78.002c0-.486-.038-.962-.097-1.438l-.114-.476h.017zm-127.81 66.935l-38.904-26.021 38.904-26.025 38.908 26.025-38.908 26.021zm-10.997-71.155l-47.692 31.899-38.498-25.752 86.189-57.458v51.312zm-67.477 45.13l-27.517 18.406v-36.812l27.517 18.406zm19.785 13.245l47.692 31.896v51.312l-86.189-57.465 38.498-25.749v.007zm69.69 31.889l47.692-31.896 38.501 25.749-86.193 57.458v-51.312zm67.477-45.127l27.521-18.409v36.815l-27.521-18.413v.007zm-19.785-13.238l-47.692-31.896v-51.315l86.193 57.458-38.501 25.752z" fill="#ccc"/></svg>