<svg width="256" height="256" viewBox="0 0 256 256" xmlns="http://www.w3.org/2000/svg" preserveAspectRatio="xMidYMid"><path d="M165.964 15.838c-3.89-11.975-16.751-18.529-28.724-14.636-11.975 3.89-18.529 16.751-14.636 28.724l58.947 181.366c4.048 11.186 16.132 17.473 27.732 14.135 12.099-3.483 19.475-16.334 15.614-28.217-.147-.453-58.932-181.372-58.932-181.372" fill="#DFA22F"/><path d="M74.626 45.516c-3.892-11.973-16.753-18.526-28.727-14.636-11.975 3.89-18.529 16.751-14.636 28.727l58.947 181.366c4.048 11.186 16.132 17.473 27.732 14.132 12.099-3.481 19.475-16.332 15.614-28.217-.147-.451-58.93-181.372-58.93-181.372" fill="#3CB187"/><path d="M240.162 166.045c11.975-3.89 18.526-16.751 14.636-28.727-3.89-11.973-16.751-18.526-28.724-14.636l-181.366 58.949c-11.186 4.046-17.473 16.13-14.135 27.73 3.483 12.099 16.334 19.475 28.217 15.614.453-.147 181.372-58.93 181.372-58.93" fill="#CE1E5B"/><path d="M82.508 217.271c11.805-3.836 27.021-8.78 43.348-14.084l-14.086-43.352-43.35 14.09 14.088 43.346" fill="#392538"/><path d="M173.847 187.591l43.348-14.084c-3.836-11.805-8.782-27.027-14.088-43.361l-43.35 14.09 14.09 43.354" fill="#BB242A"/><path d="M210.484 74.706c11.973-3.89 18.526-16.751 14.636-28.727-3.89-11.973-16.751-18.526-28.727-14.636l-181.366 58.949c-11.186 4.046-17.473 16.13-14.132 27.73 3.481 12.099 16.332 19.475 28.217 15.614.451-.147 181.372-58.93 181.372-58.93" fill="#72C5CD"/><path d="M52.822 125.933c11.805-3.836 27.025-8.782 43.354-14.086l-14.084-43.352-43.361 14.093 14.09 43.346" fill="#248C73"/><path d="M144.159 96.256c16.392-5.326 31.626-10.276 43.356-14.088l-14.088-43.361-43.358 14.093 14.09 43.356" fill="#62803A"/></svg>